<?xml version="1.0" standalone="no"?>
<!DOCTYPE svg PUBLIC "-//W3C//DTD SVG 20010904//EN"
 "http://www.w3.org/TR/2001/REC-SVG-20010904/DTD/svg10.dtd">
<svg version="1.0" xmlns="http://www.w3.org/2000/svg"
 width="173.000000pt" height="173.000000pt" viewBox="0 0 173.000000 173.000000"
 preserveAspectRatio="xMidYMid meet">

<g transform="translate(0.000000,173.000000) scale(0.100000,-0.100000)"
fill="#000000" stroke="none">
<path d="M385 1330 c0 -53 2 -60 20 -60 18 0 20 7 20 60 0 53 -2 60 -20 60
-18 0 -20 -7 -20 -60z"/>
<path d="M459 1383 c-1 -5 -1 -11 -1 -15 1 -3 -5 -12 -13 -18 -8 -7 -15 -18
-15 -24 1 -18 37 -56 55 -56 13 0 11 6 -10 34 l-26 34 26 20 c14 11 25 23 25
26 0 9 -40 7 -41 -1z"/>
<path d="M542 1330 l-28 -60 24 0 c19 0 22 3 13 13 -14 17 -4 27 27 27 19 0
23 -4 19 -20 -4 -16 0 -20 22 -20 l27 0 -28 60 c-16 33 -33 60 -38 60 -5 0
-22 -27 -38 -60z m48 -2 c0 -5 -7 -8 -15 -8 -15 0 -20 21 -8 33 7 7 23 -11 23
-25z"/>
<path d="M678 1345 c3 -28 0 -50 -8 -60 -10 -12 -9 -15 7 -15 16 0 18 6 15 43
l-3 42 21 -44 c22 -48 25 -48 51 7 l17 37 1 -30 c1 -17 -4 -36 -11 -43 -9 -9
-5 -12 21 -12 28 0 32 2 21 15 -12 14 -9 72 4 94 5 7 -1 11 -14 11 -15 0 -26
-12 -40 -42 l-19 -43 -17 43 c-11 27 -23 42 -34 42 -15 0 -17 -7 -12 -45z"/>
<path d="M845 1330 l0 -60 30 1 c17 0 24 3 18 6 -15 5 -18 89 -4 97 5 3 15 -1
22 -10 11 -14 10 -18 -6 -30 -18 -14 -18 -14 3 -14 27 0 44 28 31 52 -7 13
-22 18 -52 18 l-42 0 0 -60z"/>
<path d="M968 1377 c6 -7 12 -33 14 -57 3 -41 6 -45 31 -48 39 -5 57 14 57 57
0 20 5 42 12 49 9 9 7 12 -9 12 -18 0 -20 -5 -16 -43 4 -31 1 -46 -11 -56 -28
-23 -49 4 -43 56 4 40 3 43 -20 43 -20 0 -23 -3 -15 -13z"/>
<path d="M1115 1330 c0 -53 2 -60 20 -60 15 0 16 3 7 12 -7 7 -12 23 -12 37 0
24 1 24 40 -14 42 -41 45 -40 42 24 -1 13 3 32 9 42 8 16 6 19 -10 19 -17 0
-19 -5 -14 -37 l6 -38 -40 38 c-21 20 -41 37 -43 37 -3 0 -5 -27 -5 -60z"/>
<path d="M1272 1367 c-42 -45 -19 -97 44 -97 28 0 36 5 44 26 14 35 14 34 -22
33 -18 0 -27 -3 -20 -6 12 -5 18 -43 6 -43 -23 0 -44 24 -44 51 0 34 23 48 51
31 25 -16 29 -15 29 8 0 30 -59 28 -88 -3z"/>
<path d="M658 1173 c-8 -10 -34 -46 -56 -80 -24 -35 -81 -96 -132 -140 -74
-64 -90 -83 -88 -103 3 -22 7 -25 41 -23 l37 1 0 -119 c0 -101 -2 -119 -16
-119 -15 0 -44 -23 -44 -34 0 -3 211 -6 470 -6 259 0 470 3 470 8 0 15 -16 30
-35 33 -18 4 -20 13 -23 122 l-3 117 41 0 c36 0 40 3 40 25 0 18 -22 43 -88
100 -58 49 -106 102 -141 155 l-54 80 -202 0 c-180 0 -204 -2 -217 -17z m612
-428 c0 -73 -1 -75 -25 -75 -24 0 -25 2 -25 69 0 88 6 104 31 90 16 -8 19 -21
19 -84z m-752 2 c3 -70 1 -77 -16 -77 -17 0 -20 10 -25 67 -6 76 -1 95 22 91
13 -3 17 -19 19 -81z m750 -126 c-4 -31 -41 -37 -46 -8 -6 30 5 46 28 40 16
-4 20 -12 18 -32z m-748 -1 c0 -23 -4 -30 -20 -30 -16 0 -20 7 -20 30 0 23 4
30 20 30 16 0 20 -7 20 -30z"/>
<path d="M375 380 c0 -53 2 -60 20 -60 15 0 16 3 7 12 -12 12 -17 58 -6 58 4
0 22 -17 39 -37 18 -21 35 -36 38 -33 2 3 7 31 9 63 4 50 2 57 -14 57 -10 0
-18 -4 -18 -10 0 -5 5 -10 10 -10 6 0 10 -11 10 -25 0 -34 -13 -31 -44 10 -39
51 -51 45 -51 -25z"/>
<path d="M556 419 c-49 -39 -25 -99 40 -99 28 0 36 5 44 26 14 35 14 34 -22
33 -18 0 -27 -3 -20 -6 12 -5 18 -43 6 -43 -23 0 -44 24 -44 51 0 34 23 48 51
31 25 -16 29 -15 29 8 0 27 -48 27 -84 -1z"/>
<path d="M730 408 c-11 -18 -20 -37 -20 -42 0 -5 -7 -18 -17 -28 -15 -17 -14
-18 17 -18 27 0 31 3 22 12 -18 18 -14 28 11 28 30 0 40 -10 26 -27 -9 -10 -5
-13 19 -13 l30 0 -24 50 c-13 27 -24 54 -24 60 0 21 -21 9 -40 -22z m30 -24
c0 -8 -7 -14 -15 -14 -17 0 -18 2 -9 24 7 18 24 12 24 -10z"/>
<path d="M882 424 c-15 -10 -22 -25 -22 -48 0 -40 15 -56 55 -56 37 0 50 9 57
38 5 19 2 22 -25 21 -18 0 -26 -3 -19 -6 12 -5 18 -43 6 -43 -14 0 -42 21 -48
35 -14 39 33 72 62 43 15 -15 26 -4 19 17 -8 20 -56 20 -85 -1z"/>
<path d="M1025 380 l0 -60 48 0 c42 0 47 2 47 23 -1 20 -2 21 -14 5 -7 -10
-21 -18 -31 -18 -15 0 -17 7 -13 55 4 51 3 55 -16 55 -19 0 -21 -6 -21 -60z"/>
<path d="M1168 428 c7 -7 12 -28 12 -48 0 -20 -5 -41 -12 -48 -9 -9 -4 -12 23
-11 18 0 28 3 22 6 -17 6 -17 85 -1 101 9 9 4 12 -22 12 -26 0 -31 -3 -22 -12z"/>
<path d="M1265 380 c0 -53 2 -60 20 -60 18 0 20 7 20 60 0 53 -2 60 -20 60
-18 0 -20 -7 -20 -60z"/>
<path d="M1333 428 c2 -7 -3 -21 -11 -31 -15 -16 -15 -20 0 -45 9 -15 27 -29
39 -30 22 -4 22 -3 -5 28 l-27 33 27 28 28 29 -28 0 c-18 0 -26 -4 -23 -12z"/>
</g>
</svg>
